<svg width="20" height="20" viewBox="0 0 20 20" fill="none" xmlns="http://www.w3.org/2000/svg">
<g clip-path="url(#clip0_441_5144)">
<path d="M6.94193 6.61143C7.10484 6.58781 7.24569 6.48552 7.31855 6.33791L9.69605 1.52124L9.69619 1.52095C9.7237 1.46513 9.76629 1.41812 9.81913 1.38525C9.87197 1.35238 9.93296 1.33496 9.99519 1.33496C10.0574 1.33496 10.1184 1.35238 10.1713 1.38525C10.2241 1.41812 10.2667 1.46513 10.2942 1.52095L10.2943 1.52118L12.671 6.33785C12.7438 6.48547 12.8846 6.58777 13.0475 6.61142L18.3642 7.38308L18.3644 7.38311C18.4227 7.39155 18.4777 7.4153 18.5239 7.45194C18.57 7.48859 18.6056 7.5368 18.6271 7.59168C18.6485 7.64656 18.655 7.70615 18.6459 7.76437C18.6375 7.81872 18.6157 7.87007 18.5826 7.91387L18.5397 7.96063L14.6965 11.7008C14.5784 11.8157 14.5245 11.9813 14.5524 12.1437L15.4616 17.4395L15.4616 17.4397C15.4716 17.498 15.466 17.5579 15.4452 17.6133C15.4245 17.6686 15.3893 17.7175 15.3435 17.7548C15.2976 17.7921 15.2426 17.8166 15.1842 17.8256C15.1293 17.8342 15.0733 17.8288 15.0211 17.8102L14.9655 17.7846L10.2333 15.2909C10.0875 15.2141 9.91333 15.214 9.76751 15.2907L5.01251 17.7907L5.01232 17.7908C4.96004 17.8183 4.90139 17.8314 4.84237 17.8288C4.78335 17.8262 4.72608 17.808 4.67643 17.776C4.62678 17.744 4.58653 17.6993 4.5598 17.6466C4.53479 17.5973 4.52246 17.5426 4.52384 17.4875L4.53104 17.4266L5.43716 12.1436C5.465 11.9813 5.41113 11.8157 5.29311 11.7008L1.44145 7.95165L1.44098 7.9512C1.39866 7.9101 1.36799 7.85851 1.35213 7.80169C1.33626 7.74487 1.33576 7.68485 1.35067 7.62777C1.36558 7.57069 1.39538 7.51859 1.43701 7.4768C1.47597 7.43769 1.52398 7.40891 1.57671 7.39297L1.63932 7.38022L6.94193 6.61143Z" fill="white" stroke="#475ED9" stroke-linecap="round" stroke-linejoin="round"/>
</g>
<defs>
<clipPath id="clip0_441_5144">
<rect width="20" height="20" fill="white"/>
</clipPath>
</defs>
</svg>
